<?xml version="1.0" encoding="utf-8"?>
<!-- Generator: Adobe Illustrator 16.0.3, SVG Export Plug-In . SVG Version: 6.00 Build 0)  -->
<!DOCTYPE svg PUBLIC "-//W3C//DTD SVG 1.1//EN" "http://www.w3.org/Graphics/SVG/1.1/DTD/svg11.dtd">
<svg version="1.1" xmlns="http://www.w3.org/2000/svg" xmlns:xlink="http://www.w3.org/1999/xlink" x="0px" y="0px" width="1024px"
	 height="1024px" viewBox="0 0 1024 1024" enable-background="new 0 0 1024 1024" xml:space="preserve">
<g id="Fondo" display="none">
	<rect x="0" y="0" display="inline" width="1024" height="1024"/>
</g>
<g id="Capa_3">
	<path d="M517.672,332.708c-9.3,1.2-13.5,3-78.5,33.6c-14,6.5-28.2,13.2-31.5,14.7c-44.7,20.7-75.601,35.601-79.5,38.5
		c-6.8,5-11.5,10.7-15.601,19c-4.899,10-6.399,16.4-6.399,28.5c0,11.9,1.8,21.7,5.399,29.5c4.2,9.2,12,18.601,19.5,23.601l2.4,1.5
		l-4.5,2.7c-6.3,3.699-15.1,13.5-18.7,20.899c-4,8.3-5.5,17.8-4.8,29.8c1.3,18.5,6.6,31.2,18.1,42.5
		c9.101,9.101,14.801,12,54.601,28c57.8,23.301,73.199,29.5,77.3,31.4c24.5,11,40.399,15.7,51.2,14.8c10.5-0.899,15.4-2.899,59.9-25
		c16.5-8.2,32.699-16,36-17.399c3.4-1.301,29.1-13.9,57.299-27.9c44.9-22.3,51.4-25.8,53.201-28.8c3-4.8,2.699-6-2.6-8.7
		c-7.301-3.8-13.701-10.6-15.801-16.9c-1.9-5.699-2.6-25-1.1-29.8c1-3.1-0.1-2.8-7.1,1.8l-6.102,3.9l-0.699,7.8
		c-0.699,8.5,0.699,21.8,3,28.4c1.801,4.899,1.801,5.899,0.5,5.899c-1.699,0-33.301,15.301-109.5,52.9
		c-30.199,15-57.199,27.9-59.801,28.8c-3.299,1.101-7,1.4-12,1.101c-6.199-0.5-10.8-2-33.699-11.301
		c-14.601-5.899-44.7-18-67-26.899c-22.3-9-43.9-17.9-48.2-19.8c-17.5-8.2-25.7-22.5-24.6-43c0.6-11.601,4.5-20.101,11.3-24.601
		c2.7-1.8,5.3-3.2,5.8-3.2c0.6,0,7.4,2.7,15.1,6c7.801,3.301,27.2,11.101,43.101,17.4c16,6.3,40.899,16.1,55.6,21.9
		c31.9,12.6,35.3,13.699,44,13.699c10,0,19.9-3.5,48.4-17.3c13.801-6.6,35.1-16.8,47.5-22.7c100.1-47.8,114-54.899,117.4-60.3
		c2-3.3,2.9-8.899,1.299-8.5c-0.699,0.2-3.1-1.1-5.199-2.8c-2.199-1.7-6.5-4.5-9.6-6.2c-4.801-2.7-6-4-8.201-8.899
		c-3.1-7-5.199-18-4.299-23.4c0.699-4.3,0.199-4.6-4.1-2.5c-1.5,0.8-3.5,1.7-4.5,2c-3.4,1-3.5,18.6-0.201,31.7
		c0.801,3.1,1.4,6.1,1.4,6.6c0,0.9-23.199,12.5-63.5,31.9c-8.801,4.2-23,11-31.5,15.1c-8.5,4.101-19.1,9.2-23.5,11.3
		c-4.4,2.101-14.301,6.801-22,10.5c-20.9,10-23.1,10.7-31,10.801c-8.2,0-9.801-0.5-74-26.601c-11.5-4.7-36.2-14.6-54.8-22.1
		c-18.601-7.5-35.5-14.5-37.601-15.5c-11.2-5.8-18.3-22.9-16.2-39.101c1.101-7.699,4.4-17.1,7-19.399
		c1.801-1.601,2.4-1.601,10.9,1.3c5,1.6,23.6,8.9,41.4,16.1c17.699,7.301,41.8,16.801,53.3,21.2c11.6,4.4,27,10.5,34.399,13.4
		c21.9,8.899,32.7,10.899,44.1,8.3c4.199-0.9,20-8.2,75.5-34.7c12.1-5.7,25.199-11.899,29-13.7c3.9-1.8,14.1-6.699,22.9-10.899
		c8.699-4.2,16-7.601,16.1-7.601s8.199-3.8,17.9-8.5c9.699-4.7,18.1-8.5,18.5-8.5c0.5,0,2.9-1.8,5.4-4.1
		c5.299-4.601,6.6-8.8,4.799-15c-1.6-5.3-4.299-6.601-44.1-21c-17.9-6.5-42.4-15.4-54.5-19.8c-57-20.7-69.4-25-74.9-26
		C530.973,332.008,523.772,331.908,517.672,332.708z"/>
</g>
</svg>
